<?xml version="1.0" encoding="UTF-8" standalone="no"?>
<!-- Created with Inkscape (http://www.inkscape.org/) -->
<svg xmlns:dc="http://purl.org/dc/elements/1.1/" xmlns:cc="http://creativecommons.org/ns#" xmlns:rdf="http://www.w3.org/1999/02/22-rdf-syntax-ns#" xmlns:svg="http://www.w3.org/2000/svg" xmlns="http://www.w3.org/2000/svg" xmlns:sodipodi="http://sodipodi.sourceforge.net/DTD/sodipodi-0.dtd" xmlns:inkscape="http://www.inkscape.org/namespaces/inkscape" id="svg3063" version="1.1" inkscape:version="0.47pre3 r22311" width="907.5" height="82.5" xml:space="preserve" sodipodi:docname="CMU_logo_horiz_pms_187C.pdf"><metadata id="metadata3069"><rdf:RDF><cc:Work rdf:about=""><dc:format>image/svg+xml</dc:format><dc:type rdf:resource="http://purl.org/dc/dcmitype/StillImage"/><dc:title/></cc:Work></rdf:RDF></metadata><defs id="defs3067"><inkscape:perspective sodipodi:type="inkscape:persp3d" inkscape:vp_x="0 : 0.5 : 1" inkscape:vp_y="0 : 1000 : 0" inkscape:vp_z="1 : 0.5 : 1" inkscape:persp3d-origin="0.5 : 0.33333333 : 1" id="perspective3071"/><clipPath clipPathUnits="userSpaceOnUse" id="clipPath3081"><path d="M 0,0 726,0 726,66 0,66 0,0 z" id="path3083"/></clipPath><clipPath clipPathUnits="userSpaceOnUse" id="clipPath3097"><path d="m 0,0.06 725.779,0 0,65.014 L 0,65.074 0,0.06 z" id="path3099"/></clipPath><clipPath clipPathUnits="userSpaceOnUse" id="clipPath3109"><path d="M 0,0 726,0 726,66 0,66 0,0 z" id="path3111"/></clipPath></defs><sodipodi:namedview pagecolor="#ffffff" bordercolor="#666666" borderopacity="1" objecttolerance="10" gridtolerance="10" guidetolerance="10" inkscape:pageopacity="0" inkscape:pageshadow="2" inkscape:window-width="640" inkscape:window-height="484" id="namedview3065" showgrid="false" inkscape:zoom="0.59393939" inkscape:cx="453.75" inkscape:cy="41.25" inkscape:window-x="0" inkscape:window-y="0" inkscape:window-maximized="0" inkscape:current-layer="g3073"/><g id="g3073" inkscape:groupmode="layer" inkscape:label="CMU_logo_horiz_pms_187C" transform="matrix(1.25,0,0,-1.25,0,82.5)"><g id="g3075"/><g id="g3077"><g id="g3079" clip-path="url(#clipPath3081)"><path d="m 37.108,63.396 -1.187,0 c -0.068,-1.385 -0.794,-1.98 -2.18,-1.98 -2.774,0 -7.264,3.366 -12.017,3.366 C 8.188,64.782 0,51.446 0,39.695 0,27.877 7.792,16.191 20.865,16.191 c 7.924,0 10.896,3.764 13.007,3.764 1.388,0 2.18,-1.718 2.444,-2.707 l 0.991,0 0,16.175 -0.991,0 -0.395,-2.244 C 34.995,25.829 30.043,17.38 21.525,17.38 c -7.527,0 -10.432,7.064 -10.432,23.108 0,16.834 3.962,23.107 10.631,23.107 7.527,0 13.14,-9.046 14.197,-15.779 l 1.187,0 0,15.58" style="fill:#c4122e;fill-opacity:1;fill-rule:nonzero;stroke:none" id="path3085"/><path d="m 73.116,22.85 -1.175,0 c 0,-1.695 -0.715,-3.648 -2.278,-3.648 -1.172,0 -1.497,1.238 -1.497,3.256 l 0,14.981 c 0,7.426 -6.97,9.25 -13.679,9.25 -6.514,0 -11.267,-3.192 -11.267,-6.839 0,-2.28 1.302,-4.233 4.232,-4.233 2.476,0 3.973,1.628 3.973,3.907 0,3.127 -3.255,2.931 -3.321,4.039 -0.064,1.432 3.712,1.954 5.928,1.954 4.883,0 5.534,-2.41 5.534,-6.318 l 0,-5.471 -6.382,-0.521 C 47.257,32.75 40.809,31.188 40.809,24.414 c 0,-5.669 5.082,-7.946 10.096,-7.946 2.54,0 7.034,0.976 8.727,4.102 1.173,-2.735 3.584,-4.102 6.514,-4.102 4.234,0 6.97,2.538 6.97,6.382 m -13.55,2.148 c -0.129,-3.452 -2.084,-6.576 -5.144,-6.576 -4.43,0 -4.623,4.036 -4.623,7.425 0,3.453 0.39,5.73 4.623,6.186 l 5.144,0.522 0,-7.557" style="fill:#c4122e;fill-opacity:1;fill-rule:nonzero;stroke:none" id="path3087"/><path d="m 73.481,17.248 19.478,0 0,1.174 -5.992,0 0,16.62 c 0,5.019 1.562,8.538 5.666,10.362 l 0.261,0 c -1.107,-1.172 -1.565,-2.215 -1.565,-3.843 0,-2.544 1.891,-4.237 4.431,-4.237 3.126,0 4.952,2.28 4.952,4.756 0,3.131 -2.087,5.021 -5.148,5.021 -4.169,0 -7.361,-2.869 -8.597,-6.128 l -0.131,0 0,6.648 c -1.369,-1.694 -6.189,-1.694 -8.859,-1.694 l -4.496,0 0,-1.173 4.496,0 0,-26.332 -4.496,0 0,-1.174" style="fill:#c4122e;fill-opacity:1;fill-rule:nonzero;stroke:none" id="path3089"/><path d="m 101.727,17.248 17.323,0 0,1.174 -3.842,0 0,17.859 c 0,3.323 3.257,8.083 6.903,8.083 1.889,0 3.844,-0.784 3.844,-5.347 l 0,-20.595 -3.714,0 0,-1.174 17.194,0 0,1.174 -4.496,0 0,18.184 c 0,7.039 -2.994,10.103 -9.18,10.103 -4.364,0 -8.662,-2.282 -10.42,-6.062 l -0.131,0 0,6.974 c -1.367,-1.694 -6.187,-1.694 -8.857,-1.694 l -4.624,0 0,-1.173 4.495,0 0,-26.332 -4.495,0 0,-1.174" style="fill:#c4122e;fill-opacity:1;fill-rule:nonzero;stroke:none" id="path3091"/></g></g><g id="g3093"><g id="g3095" clip-path="url(#clipPath3097)"><path d="m 148.922,33.01 17.981,0 c -0.065,7.035 -6.582,13.809 -13.421,13.679 -7.686,0 -14.332,-6.644 -14.332,-15.437 0,-8.467 6.189,-14.784 14.528,-14.784 8.012,0 11.987,4.949 13.42,11.397 l -1.172,0 c -1.434,-6.057 -5.211,-9.837 -10.293,-9.837 -6.059,0 -6.711,5.082 -6.711,9.512 l 0,5.47 z m 0,1.175 0,5.6 c 0,4.364 1.89,5.732 4.104,5.732 3.127,0 4.105,-2.15 4.105,-5.732 l 0,-5.6 -8.209,0" style="fill:#c4122e;fill-opacity:1;fill-rule:nonzero;stroke:none" id="path3101"/><path d="m 199.248,43.758 c 0,2.279 -2.476,3.452 -4.43,3.452 -2.15,0 -3.779,-1.433 -5.017,-2.865 -1.888,1.365 -4.492,2.344 -8.14,2.344 -5.473,0 -11.333,-3.582 -11.333,-9.507 0,-3.581 1.953,-6.381 5.405,-7.944 l 0,-0.131 c -2.54,-0.325 -6.513,-2.084 -6.513,-7.489 0,-3.254 1.499,-5.729 4.233,-6.512 l 0,-0.129 c -2.604,-0.715 -5.599,-3.323 -5.599,-6.446 0,-4.82 5.667,-8.531 12.894,-8.531 9.053,0 14.981,6.123 14.981,14.066 0,6.316 -3.125,9.181 -9.508,9.049 l -10.813,0 c -1.63,0 -3.844,0.068 -3.844,1.825 0,1.627 2.802,3.387 5.277,3.387 0.716,0 1.432,-0.196 2.149,-0.393 0.781,-0.259 1.628,-0.391 2.671,-0.391 5.602,0 11.593,3.192 11.593,9.378 0,2.083 -0.978,5.014 -2.799,6.576 1.171,1.175 1.758,2.608 4.296,2.931 l 0,-0.13 c -1.367,-0.716 -1.758,-1.564 -1.758,-2.865 0,-1.498 1.043,-2.996 2.995,-2.996 2.085,0 3.26,1.563 3.26,3.321 m -24.754,-28.846 10.227,0 c 6.514,0 8.663,-0.586 8.663,-4.558 0,-4.753 -5.861,-9.181 -12.439,-9.181 -5.864,0 -9.054,3.973 -9.184,7.096 0,2.865 0.975,4.754 2.733,6.643 m 11.334,22.27 c -0.064,-8.009 -1.758,-8.464 -4.102,-8.464 -2.605,0 -3.973,0.846 -3.973,8.659 0,5.274 0.586,8.14 3.973,8.14 3.062,0 4.038,-0.845 4.102,-8.335" style="fill:#c4122e;fill-opacity:1;fill-rule:nonzero;stroke:none" id="path3103"/></g></g><g id="g3105"><g id="g3107" clip-path="url(#clipPath3109)"><path d="m 200.264,17.248 17.987,0 0,1.174 -4.496,0 0,29.199 c -1.369,-1.694 -6.192,-1.694 -8.863,-1.694 l -4.628,0 0,-1.173 4.496,0 0,-26.332 -4.496,0 0,-1.174" style="fill:#c4122e;fill-opacity:1;fill-rule:nonzero;stroke:none" id="path3113"/><path d="m 204.607,56.002 c 0,-2.584 2.066,-4.649 4.652,-4.649 2.582,0 4.649,2.065 4.649,4.649 0,2.583 -2.067,4.649 -4.649,4.649 -2.586,0 -4.652,-2.066 -4.652,-4.649" style="fill:#c4122e;fill-opacity:1;fill-rule:nonzero;stroke:none" id="path3115"/><path d="m 228.023,33.01 17.979,0 c -0.065,7.035 -6.581,13.809 -13.421,13.679 -7.686,0 -14.331,-6.644 -14.331,-15.437 0,-8.467 6.188,-14.784 14.526,-14.784 8.012,0 11.989,4.949 13.419,11.397 l -1.171,0 c -1.432,-6.057 -5.21,-9.837 -10.292,-9.837 -6.058,0 -6.709,5.082 -6.709,9.512 l 0,5.47 z m 0,1.175 0,5.6 c 0,4.364 1.888,5.732 4.103,5.732 3.125,0 4.103,-2.15 4.103,-5.732 l 0,-5.6 -8.206,0" style="fill:#c4122e;fill-opacity:1;fill-rule:nonzero;stroke:none" id="path3117"/><path d="m 257.399,17.248 12.632,0 0,1.172 -0.91,0 c -3.516,0 -4.886,0.911 -4.886,6.186 l 0,36.921 0.132,0 15.561,-44.279 1.76,0 15.169,43.499 0.13,0 0,-42.327 -5.598,0 0,-1.172 20.64,0 0,1.172 -4.883,0 0,43.499 4.883,0 0,1.171 -15.692,0 -11.006,-31.451 -0.13,0 -10.806,31.451 -16.668,0 0,-1.171 4.946,0 0,-37.9 c 0,-2.798 -0.651,-5.599 -5.013,-5.599 l -0.261,0 0,-1.172" style="fill:#c4122e;fill-opacity:1;fill-rule:nonzero;stroke:none" id="path3119"/><path d="m 321.148,33.01 17.979,0 c -0.063,7.035 -6.579,13.809 -13.419,13.679 -7.685,0 -14.333,-6.644 -14.333,-15.437 0,-8.467 6.189,-14.784 14.53,-14.784 8.01,0 11.985,4.949 13.419,11.397 l -1.174,0 c -1.431,-6.057 -5.211,-9.837 -10.291,-9.837 -6.06,0 -6.711,5.082 -6.711,9.512 l 0,5.47 z m 0,1.175 0,5.6 c 0,4.364 1.888,5.732 4.103,5.732 3.129,0 4.106,-2.15 4.106,-5.732 l 0,-5.6 -8.209,0" style="fill:#c4122e;fill-opacity:1;fill-rule:nonzero;stroke:none" id="path3121"/><path d="m 339.298,17.248 17.986,0 0,1.172 -4.497,0 0,46.654 c -1.172,-1.954 -4.758,-1.954 -9.385,-1.954 l -4.104,0 0,-1.175 4.496,0 0,-43.525 -4.496,0 0,-1.172" style="fill:#c4122e;fill-opacity:1;fill-rule:nonzero;stroke:none" id="path3123"/><path d="m 358.432,17.248 17.987,0 0,1.172 -4.496,0 0,46.654 C 370.75,63.12 367.165,63.12 362.54,63.12 l -4.108,0 0,-1.175 4.495,0 0,-43.525 -4.495,0 0,-1.172" style="fill:#c4122e;fill-opacity:1;fill-rule:nonzero;stroke:none" id="path3125"/><path d="m 406.683,31.577 c 0,8.925 -6.904,15.112 -15.502,15.112 -8.597,0 -15.502,-6.187 -15.502,-15.112 0,-8.922 6.905,-15.109 15.502,-15.109 8.598,0 15.502,6.187 15.502,15.109 m -10.161,-7.034 c 0,-4.885 -2.019,-6.905 -5.341,-6.905 -3.32,0 -5.342,2.02 -5.342,6.905 l 0,14.069 c 0,4.885 2.022,6.905 5.342,6.905 3.322,0 5.341,-2.02 5.341,-6.905 l 0,-14.069" style="fill:#c4122e;fill-opacity:1;fill-rule:nonzero;stroke:none" id="path3127"/><path d="m 406.724,17.248 17.323,0 0,1.174 -3.84,0 0,17.859 c 0,3.323 3.255,8.083 6.903,8.083 1.888,0 3.842,-0.784 3.842,-5.347 l 0,-20.595 -3.712,0 0,-1.174 17.193,0 0,1.174 -4.495,0 0,18.184 c 0,7.039 -2.995,10.103 -9.183,10.103 -4.362,0 -8.66,-2.282 -10.42,-6.062 l -0.128,0 0,6.974 c -1.37,-1.694 -6.189,-1.694 -8.858,-1.694 l -4.625,0 0,-1.173 4.494,0 0,-26.332 -4.494,0 0,-1.174" style="fill:#c4122e;fill-opacity:1;fill-rule:nonzero;stroke:none" id="path3129"/><path d="m 453.507,61.919 5.078,0 0,-29.499 c 0,-10.092 6.967,-16.215 17.581,-16.215 11.982,0 17.191,6.317 17.191,15.89 l 0,24.354 c 0,3.776 1.043,5.47 3.387,5.47 l 1.694,0 0,1.171 -12.894,0 0,-1.171 1.889,0 c 3.32,0 4.363,-1.694 4.363,-5.47 l 0,-24.745 c 0,-8.855 -5.341,-13.153 -11.658,-13.153 -9.508,0 -11.394,6.381 -11.394,14.716 l 0,28.652 5.275,0 0,1.171 -20.512,0 0,-1.171" style="fill:#c4122e;fill-opacity:1;fill-rule:nonzero;stroke:none" id="path3131"/><path d="m 495.9,17.248 17.322,0 0,1.174 -3.842,0 0,17.859 c 0,3.323 3.256,8.083 6.903,8.083 1.89,0 3.843,-0.784 3.843,-5.347 l 0,-20.595 -3.711,0 0,-1.174 17.192,0 0,1.174 -4.494,0 0,18.184 c 0,7.039 -2.994,10.103 -9.18,10.103 -4.367,0 -8.664,-2.282 -10.422,-6.062 l -0.131,0 0,6.974 c -1.365,-1.694 -6.187,-1.694 -8.857,-1.694 l -4.623,0 0,-1.173 4.492,0 0,-26.332 -4.492,0 0,-1.174" style="fill:#c4122e;fill-opacity:1;fill-rule:nonzero;stroke:none" id="path3133"/><path d="m 534.558,17.248 17.988,0 0,1.174 -4.496,0 0,29.199 c -1.369,-1.694 -6.193,-1.694 -8.865,-1.694 l -4.627,0 0,-1.173 4.5,0 0,-26.332 -4.5,0 0,-1.174" style="fill:#c4122e;fill-opacity:1;fill-rule:nonzero;stroke:none" id="path3135"/><path d="m 538.902,56.002 c 0,-2.584 2.068,-4.649 4.652,-4.649 2.582,0 4.647,2.065 4.647,4.649 0,2.583 -2.065,4.649 -4.647,4.649 -2.584,0 -4.652,-2.066 -4.652,-4.649" style="fill:#c4122e;fill-opacity:1;fill-rule:nonzero;stroke:none" id="path3137"/><path d="m 565.744,16.468 1.759,0 9.641,22.797 c 1.628,3.647 2.996,5.407 4.492,5.469 l 0.588,0 0,1.173 -10.161,0 0,-1.173 1.239,0 c 1.887,0 2.994,-0.714 2.994,-2.409 0,-1.043 -0.324,-2.475 -1.107,-4.298 l -4.428,-10.422 -7.619,17.129 3.906,0 0,1.173 -16.347,0 0,-1.173 2.8,0 12.243,-28.266" style="fill:#c4122e;fill-opacity:1;fill-rule:nonzero;stroke:none" id="path3139"/><path d="m 589.371,33.01 17.981,0 c -0.065,7.035 -6.58,13.809 -13.421,13.679 -7.685,0 -14.332,-6.644 -14.332,-15.437 0,-8.467 6.188,-14.784 14.529,-14.784 8.012,0 11.987,4.949 13.418,11.397 l -1.171,0 c -1.432,-6.057 -5.21,-9.837 -10.292,-9.837 -6.06,0 -6.263,5.082 -6.263,9.512 l -0.449,5.47 z m 0,1.175 0,5.6 c 0,4.364 1.888,5.732 4.106,5.732 3.126,0 4.103,-2.15 4.103,-5.732 l 0,-5.6 -8.209,0" style="fill:#c4122e;fill-opacity:1;fill-rule:nonzero;stroke:none" id="path3141"/><path d="m 607.5,17.248 19.478,0 0,1.174 -5.994,0 0,16.62 c 0,5.019 1.564,8.538 5.668,10.362 l 0.26,0 c -1.108,-1.172 -1.563,-2.215 -1.563,-3.843 0,-2.544 1.887,-4.237 4.43,-4.237 3.127,0 4.949,2.28 4.949,4.756 0,3.131 -2.084,5.021 -5.146,5.021 -4.167,0 -7.36,-2.869 -8.598,-6.128 l -0.131,0 0,6.648 c -1.367,-1.694 -6.187,-1.694 -8.859,-1.694 l -4.494,0 0,-1.173 4.494,0 0,-26.332 -4.494,0 0,-1.174" style="fill:#c4122e;fill-opacity:1;fill-rule:nonzero;stroke:none" id="path3143"/><path d="m 636.148,16.468 1.174,0 c 0.325,1.04 1.367,1.56 2.67,1.56 1.693,0 3.715,-1.56 7.364,-1.56 6.186,0 10.423,5.34 10.423,10.679 0,7.948 -5.473,8.535 -12.446,9.512 -3.648,0.521 -5.927,1.108 -5.927,3.973 0,3.062 2.672,4.885 6.189,4.885 4.886,0 7.494,-3.842 9.121,-8.078 l 1.041,0 -0.39,9.25 -0.977,0 c 0,-0.782 -0.781,-1.434 -2.017,-1.434 -2.088,0 -3.78,1.434 -6.778,1.434 -6.515,0 -9.707,-5.537 -9.707,-9.705 0,-8.402 6.385,-9.119 11.336,-9.705 4.692,-0.587 6.647,-1.042 6.647,-4.039 0,-3.452 -2.866,-5.602 -6.385,-5.602 -4.953,0 -8.992,5.017 -10.164,9.77 l -1.174,0 0,-10.94" style="fill:#c4122e;fill-opacity:1;fill-rule:nonzero;stroke:none" id="path3145"/><path d="m 658.933,17.248 17.984,0 0,1.174 -4.496,0 0,29.199 c -1.367,-1.694 -6.19,-1.694 -8.863,-1.694 l -4.625,0 0,-1.173 4.496,0 0,-26.332 -4.496,0 0,-1.174" style="fill:#c4122e;fill-opacity:1;fill-rule:nonzero;stroke:none" id="path3147"/><path d="m 663.277,56.002 c 0,-2.584 2.064,-4.649 4.648,-4.649 2.584,0 4.651,2.065 4.651,4.649 0,2.583 -2.067,4.649 -4.651,4.649 -2.584,0 -4.648,-2.066 -4.648,-4.649" style="fill:#c4122e;fill-opacity:1;fill-rule:nonzero;stroke:none" id="path3149"/><path d="m 679.488,44.728 0,-20.837 c 0,-6.188 5.344,-7.423 7.168,-7.423 3.976,0 6.648,1.626 8.67,5.012 l -0.847,0.456 c -0.784,-1.17 -1.829,-2.735 -3.456,-2.735 -1.695,0 -2.541,1.239 -2.541,3.387 l 0,22.14 5.997,0 0,1.172 -5.997,0 0,14.001 -1.176,0 C 687.306,53 682.617,45.9 676.033,45.9 l 0,-1.172 3.455,0" style="fill:#c4122e;fill-opacity:1;fill-rule:nonzero;stroke:none" id="path3151"/><path d="m 694.257,44.734 2.735,0 12.506,-28.975 -0.391,-2.605 c -0.264,-1.889 -1.565,-9.313 -3.715,-9.962 l 0,0.194 c 0.264,0.912 0.326,1.628 0.326,2.215 0,2.213 -1.56,3.907 -4.299,3.907 -2.865,0 -4.296,-1.954 -4.296,-4.428 0,-2.672 2.474,-4.559 5.339,-4.559 5.147,0 6.448,5.665 7.036,8.4 l 1.757,7.945 3.389,8.466 6.447,14.52 c 1.432,3.322 2.737,4.882 4.166,4.882 l 0.522,0 0,1.173 -10.16,0 0,-1.173 1.367,0 c 2.084,0 2.998,-1.17 2.998,-2.277 0,-1.303 -0.85,-3.451 -1.891,-5.926 l -3.775,-8.921 -7.623,17.124 4.301,0 0,1.173 -16.739,0 0,-1.173" style="fill:#c4122e;fill-opacity:1;fill-rule:nonzero;stroke:none" id="path3153"/></g></g></g></svg>